<?xml version="1.0" encoding="UTF-8" standalone="no"?>
<!DOCTYPE svg PUBLIC "-//W3C//DTD SVG 1.1//EN" "http://www.w3.org/Graphics/SVG/1.1/DTD/svg11.dtd">
<svg width="100%" height="100%" viewBox="0 0 46 69" version="1.1" xmlns="http://www.w3.org/2000/svg" xmlns:xlink="http://www.w3.org/1999/xlink" xml:space="preserve" xmlns:serif="http://www.serif.com/" style="fill:currentColor; fill-rule:evenodd;clip-rule:evenodd;stroke-linejoin:round;stroke-miterlimit:2;">
    <g transform="matrix(1,0,0,1,-62.4789,-18.564)">
        <g transform="matrix(3.5829,0,0,3.5829,-275.711,-1220.68)">
            <path d="M94.776,350.509C96,350.891 97.104,351.011 98.062,351.011L98.11,351.011C97.463,352.596 97.032,354.229 96.96,355.501C96.912,356.414 97.056,358.115 98.493,358.115C99.622,358.115 101.087,356.87 102.216,355.645L101.783,357.421C99.166,359.003 96.696,360.54 96.576,362.797C96.504,364.021 97.27,364.907 98.542,364.907C101.615,364.907 102.648,360.852 103.439,357.588C104.781,356.75 106.197,355.813 106.965,354.853C107.421,354.397 106.629,353.7 106.197,354.205C105.573,354.925 104.781,355.573 103.751,356.198L104.421,353.388C104.421,352.62 103.08,352.428 102.816,353.172C102.432,354.109 99.982,356.918 98.949,356.918C98.709,356.918 98.541,356.51 98.589,355.477C98.661,354.109 99.19,352.428 99.838,350.867C101.423,350.509 104.134,349.381 104.253,347.459C104.301,346.476 103.463,345.878 102.552,345.878C100.703,345.878 99.214,348.492 98.493,350.03C97.487,350.174 96.312,349.91 95.016,349.55C94.704,349.55 94.416,349.766 94.392,350.054C94.368,350.317 94.536,350.413 94.752,350.509L94.776,350.509ZM98.83,363.686C98.182,363.974 97.605,363.71 97.653,362.845C97.725,361.309 99.43,360.036 101.447,358.787C100.967,360.66 100.343,362.99 98.83,363.686ZM102.264,347.147C102.6,346.955 103.152,346.883 103.152,347.459C103.08,348.613 101.519,349.381 100.415,349.742C100.895,348.757 101.591,347.604 102.288,347.147L102.264,347.147Z" style="fill-rule:nonzero;"/>
        </g>
    </g>
</svg>
